# xmcd
# 
# Track frame offsets:
#     150
#     4837
#     20236
#     48462
#     75492
#     99368
#     121741
#     144696
#     172303
#     197161
#     219473
#     241182
# 
# Disc length: 3664
# 
# Revision: 1
# Processed by: cddbd v1.5.2PL0 Copyright (c) Steve Scherf et al.
# Submitted via: fre:ac v1.0.31
# 
DISCID=a30e4e0c
DTITLE=John Hiatt - Sigma Studios 1996
DYEAR=2015
DGENRE=Rock/Pop
TTITLE0=Intro
TTITLE1=Good as she could be
TTITLE2=You must go
TTITLE3=Wrote it down and burned it
TTITLE4=Ethylene
TTITLE5=Your love is my best
TTITLE6=Native son
TTITLE7=Walk on
TTITLE8=Shredding the document
TTITLE9=Dust down a country road
TTITLE10=Cry love
TTITLE11=Thing called love
EXTD=YEAR: 2015
EXTT0=
EXTT1=
EXTT2=
EXTT3=
EXTT4=
EXTT5=
EXTT6=
EXTT7=
EXTT8=
EXTT9=
EXTT10=
EXTT11=
PLAYORDER=
